PathFileType	4	(X/Y/Z)	C:\Users\WrightLab\Desktop\Jo\P1.2Trial36.trc
DataRate	CameraRate	NumFrames	NumMarkers	Units	OrigDataRate	OrigDataStartFrame	OrigNumFrames
100.00	100.00	      92	19	mm	100.00	129	      1029
Frame#	Time	Headset_Front			Headset_Back			Headset_Left			Headset_Right			Left_Shoulder			Right_Shoulder			Sternum			C7			Left Elbow			Right Elbow			Left Wrist			Right Wrist			Left ASIS			Right ASIS			S2			Left Knee			Right Knee			Left Ankle			Right Ankle			
		X1	Y1	Z1	X2	Y2	Z2	X3	Y3	Z3	X4	Y4	Z4	X5	Y5	Z5	X6	Y6	Z6	X7	Y7	Z7	X8	Y8	Z8	X9	Y9	Z9	X10	Y10	Z10	X11	Y11	Z11	X12	Y12	Z12	X13	Y13	Z13	X14	Y14	Z14	X15	Y15	Z15	X16	Y16	Z16	X17	Y17	Z17	X18	Y18	Z18	X19	Y19	Z19	

129	1.280																																		-107.68895	800.59564	2262.61060																						
130	1.290																																		-106.12039	800.23438	2261.04761																						
131	1.300																																		-104.74786	800.16235	2260.39160																						
132	1.310																																		-103.56768	799.05139	2258.57837																						
133	1.320																																		-102.84165	798.72961	2256.67383																						
134	1.330																																		-101.46642	798.88794	2255.34521																						
135	1.340																																		-99.90583	798.68060	2254.59644																						
136	1.350																																		-97.98720	798.47693	2255.13721																						
137	1.360																																		-96.73923	798.79205	2255.78564																						
138	1.370																																		-95.88249	798.89209	2254.76636																						
139	1.380																																		-94.72538	798.40497	2254.24878																						
140	1.390																																		-93.41142	797.40552	2252.20605																						
141	1.400																																		-92.56541	797.38562	2251.49976																						
142	1.410																																		-90.90847	797.37299	2252.31445																						
143	1.420																																		-89.47467	796.82910	2254.22949																						
144	1.430																																		-88.40082	796.81848	2253.34912																						
145	1.440																																		-87.51101	796.92670	2252.41553																						
146	1.450																																		-86.83591	796.73914	2252.08813																						
147	1.460																																		-85.41553	795.66614	2251.42676																						
148	1.470																																		-84.36236	795.42834	2252.05127																						
149	1.480																																		-83.68349	795.62036	2252.59204																						
150	1.490																																		-82.59806	795.26862	2253.52905																						
151	1.500																																		-81.57824	793.97644	2253.36646																						
152	1.510																																		-81.29654	793.57184	2253.38818																						
153	1.520																																		-81.02038	792.51508	2252.44360																						
154	1.530																																		-81.00860	791.82227	2252.89575																						
155	1.540																																		-80.37964	790.65088	2252.68652																						
156	1.550																																		-79.53614	789.42688	2254.44556																						
157	1.560																																		-79.18213	789.01141	2254.37622																						
158	1.570																																		-79.14052	788.35529	2254.93555																						
159	1.580																																		-78.24731	786.44366	2256.33521																						
160	1.590																																		-78.43568	785.53174	2257.12109																						
161	1.600																																		-78.62585	784.27667	2256.68042																						
162	1.610																																		-78.56821	783.61072	2257.03296																						
163	1.620																																		-78.74429	782.47650	2258.04443																						
164	1.630																																		-79.00845	781.77362	2258.46167																						
165	1.640																																		-79.00319	779.95966	2257.90845																						
166	1.650																																		-79.53184	779.20111	2258.52979																						
167	1.660																																		-79.83300	778.53479	2258.80762																						
168	1.670																																		-80.19204	777.41980	2257.91919																						
169	1.680																																		-80.96480	776.84302	2255.89380																						
170	1.690																																		-81.93418	776.77344	2253.61670																						
171	1.700																																		-82.25753	776.58441	2252.84082																						
172	1.710																																		-82.67696	776.41510	2250.13281																						
173	1.720																																		-83.36566	776.20618	2245.12305																						
174	1.730																																		-83.43797	776.30737	2241.69800																						
175	1.740																																		-84.05027	776.25885	2235.96704																						
176	1.750																																		-84.52562	776.91467	2229.82031																						
177	1.760																																		-85.25807	777.20166	2223.15771																						
178	1.770																																		-85.80712	777.84637	2215.61206																						
179	1.780																																		-86.27550	778.78595	2208.89307																						
180	1.790																																		-88.07712	779.82196	2197.89990																						
181	1.800																																		-89.31017	780.85278	2188.32788																						
182	1.810																																		-91.05618	782.31873	2178.70947																						
183	1.820																																		-92.76463	784.33508	2166.68481																						
184	1.830																																		-94.52835	786.40063	2155.75562																						
185	1.840																																		-96.02202	788.19623	2143.10229																						
186	1.850																																		-98.49248	790.46844	2130.49048																						
187	1.860																																		-100.62841	792.70197	2116.50879																						
188	1.870																																		-102.99451	796.01526	2103.08203																						
189	1.880																																		-105.15121	798.98370	2088.75049																						
190	1.890																																		-107.75836	802.66290	2074.43604																						
191	1.900																																		-110.38761	806.73779	2060.72168																						
192	1.910																																		-113.94490	811.26843	2042.78687																						
193	1.920																																		-116.39615	815.21936	2030.58508																						
194	1.930																																		-119.96562	819.94159	2014.17578																						
195	1.940																																		-123.23061	825.30383	1999.94922																						
196	1.950																																		-126.43429	830.36322	1985.67786																						
197	1.960																																		-130.29204	836.19354	1970.48596																						
198	1.970																																		-133.72697	841.78961	1956.28564																						
199	1.980																																		-137.94298	847.67725	1941.91028																						
200	1.990																																		-141.41025	853.73969	1929.06226																						
201	2.000																																		-145.01576	859.21619	1914.71448																						
202	2.010																																		-150.02052	864.86450	1903.08203																						
203	2.020																																		-154.81018	870.98926	1890.63147																						
204	2.030																																		-159.47133	876.31946	1876.94495																						
205	2.040																																		-163.20227	882.88556	1866.54700																						
206	2.050																																		-169.02614	887.14282	1855.17993																						
207	2.060																																		-174.01413	892.04388	1845.29980																						
208	2.070																																		-178.87408	897.07867	1834.60742																						
209	2.080																																		-183.89754	901.16248	1823.82715																						
210	2.090																																		-188.79034	905.37982	1815.52881																						
211	2.100																																		-193.88028	909.09576	1805.05029																						
212	2.110																																		-198.60431	911.87933	1795.93408																						
213	2.120																																		-203.83774	914.44305	1787.54468																						
214	2.130																																		-208.50470	916.69891	1779.17212																						
215	2.140																																		-213.56421	919.01501	1772.21387																						
216	2.150																																		-218.51715	919.83124	1762.14905																						
217	2.160																																		-223.13307	921.68640	1755.45557																						
218	2.170																																		-227.86145	922.08197	1748.59692																						
219	2.180																																		-231.98590	922.41095	1740.93079																						
220	2.190																																		-236.65062	921.65894	1734.05090																						
